<svg xmlns="http://www.w3.org/2000/svg" version="1.1" xmlns:xlink="http://www.w3.org/1999/xlink" xmlns:svgjs="http://svgjs.com/svgjs" width="750" height="560" preserveAspectRatio="none" viewBox="0 0 750 560"><g mask="url(&quot;#SvgjsMask1001&quot;)" fill="none"><rect width="750" height="560" x="0" y="0" fill="rgba(215, 206, 199, 1)"></rect><path d="M0 0L100.55 0L0 55.61z" fill="rgba(255, 255, 255, .1)"></path><path d="M0 55.61L100.55 0L289.58 0L0 230.39z" fill="rgba(255, 255, 255, .075)"></path><path d="M0 230.39L289.58 0L309.94 0L0 422.75z" fill="rgba(255, 255, 255, .05)"></path><path d="M0 422.75L309.94 0L328.12 0L0 516.98z" fill="rgba(255, 255, 255, .025)"></path><path d="M750 560L689.99 560L750 532.51z" fill="rgba(0, 0, 0, .1)"></path><path d="M750 532.51L689.99 560L581.96 560L750 257.39z" fill="rgba(0, 0, 0, .075)"></path><path d="M750 257.39L581.96 560L457.85 560L750 142.63z" fill="rgba(0, 0, 0, .05)"></path><path d="M750 142.63L457.85 560L151.72000000000003 560L750 81.47z" fill="rgba(0, 0, 0, .025)"></path></g><defs><mask id="SvgjsMask1001"><rect width="750" height="560" fill="#ffffff"></rect></mask></defs></svg>