<svg xmlns="http://www.w3.org/2000/svg" version="1.1" xmlns:xlink="http://www.w3.org/1999/xlink" xmlns:svgjs="http://svgjs.com/svgjs" width="750" height="560" preserveAspectRatio="none" viewBox="0 0 750 560"><g mask="url(&quot;#SvgjsMask5842&quot;)" fill="none"><rect width="750" height="560" x="0" y="0" fill="url(#SvgjsLinearGradient5843)"></rect><path d="M750 0L691.97 0L750 137.32z" fill="rgba(255, 255, 255, .1)"></path><path d="M691.97 0L750 137.32L750 243.92L682.7900000000001 0z" fill="rgba(255, 255, 255, .075)"></path><path d="M682.79 0L750 243.92L750 249.07L350.71 0z" fill="rgba(255, 255, 255, .05)"></path><path d="M350.71000000000004 0L750 249.07L750 318.31L221.55000000000004 0z" fill="rgba(255, 255, 255, .025)"></path><path d="M0 560L101.23 560L0 546.6z" fill="rgba(0, 0, 0, .1)"></path><path d="M0 546.6L101.23 560L236.79000000000002 560L0 511z" fill="rgba(0, 0, 0, .075)"></path><path d="M0 511L236.79000000000002 560L490.46000000000004 560L0 483.24z" fill="rgba(0, 0, 0, .05)"></path><path d="M0 483.24L490.46000000000004 560L584.82 560L0 311.55z" fill="rgba(0, 0, 0, .025)"></path></g><defs><mask id="SvgjsMask5842"><rect width="750" height="560" fill="#ffffff"></rect></mask><linearGradient x1="6.33%" y1="108.48%" x2="93.67%" y2="-8.48%" gradientUnits="userSpaceOnUse" id="SvgjsLinearGradient5843"><stop stop-color="rgba(230, 238, 246, 1)" offset="0"></stop><stop stop-color="rgba(228, 242, 242, 1)" offset="1"></stop></linearGradient></defs></svg>